<?xml version="1.0" encoding="utf-8"?>
<!-- Generator: Adobe Illustrator 21.0.2, SVG Export Plug-In . SVG Version: 6.00 Build 0)  -->
<svg version="1.1" id="Layer_1" xmlns="http://www.w3.org/2000/svg" xmlns:xlink="http://www.w3.org/1999/xlink" x="0px" y="0px"
	 viewBox="0 0 111.8 24.4" style="enable-background:new 0 0 111.8 24.4;" xml:space="preserve">
<style type="text/css">
	.st0{fill:#29276E;stroke:#FFFFFF;stroke-miterlimit:10;}
	.st1{fill:#CBC9E5;stroke:#FFFFFF;stroke-miterlimit:10;}
</style>
<polygon class="st0" points="11.7,2 14.9,8.6 22.2,9.7 17,14.9 18.2,22.1 11.7,18.7 5.2,22.1 6.4,14.9 1.1,9.7 8.4,8.6 "/>
<polygon class="st0" points="33.7,2 37,8.6 44.3,9.7 39,14.9 40.2,22.1 33.7,18.7 27.2,22.1 28.4,14.9 23.1,9.7 30.4,8.6 "/>
<polygon class="st0" points="55.7,2 59,8.6 66.3,9.7 61,14.9 62.2,22.1 55.7,18.7 49.2,22.1 50.4,14.9 45.1,9.7 52.4,8.6 "/>
<polygon class="st1" points="77.7,2 81,8.6 88.3,9.7 83,14.9 84.2,22.1 77.7,18.7 71.2,22.1 72.4,14.9 67.2,9.7 74.5,8.6 "/>
<polygon class="st1" points="99.7,2 103,8.6 110.3,9.7 105,14.9 106.2,22.1 99.7,18.7 93.2,22.1 94.4,14.9 89.2,9.7 96.5,8.6 "/>
</svg>
